# xmcd
#
# Track frame offsets:
#	183
#	11708
#	24408
#	38188
#	47865
#	60848
#	71553
#	80810
#	92293
#	102635
#	116255
#	127565
#	138885
#	149775
#	163268
#	175340
#
# Disc length: 2478 seconds
#
# Revision: 0
# Processed by: cddbd v1.5.2PL0 Copyright (c) Steve Scherf et al.
# Submitted via: SynApp - FreeCDDB Version: 2.5
#
DISCID=d509ac10
DTITLE=Varios - On The Road
DYEAR=1993
DGENRE=Country
TTITLE0=Waylon Jennings - Ladies loves outlaws
TTITLE1=Gary Steward - She´s aclin single
TTITLE2=Jim Ed Brown helen Cornelius - i don´t want to have to mary you
TTITLE3=Walon Jennings - Therme from the duke of hazzard
TTITLE4=Keith Whitley - The birmingham turnaround
TTITLE5=Boxcar Willi - Louisiana Saturday Night
TTITLE6=Chet Atkins - Yakely Axe
TTITLE7=Roger Miller - Fotoprints in the snow
TTITLE8=Porter Wagoner - i Cried again
TTITLE9=Charley Pride - All I have offer
TTITLE10=Kenny Price - Northeast Arkansas Mississippi
TTITLE11=Hank Snow - Oh Lonesome me
TTITLE12=Jim Reeves - Good morning self
TTITLE13=Johnny Cash - When Popo Played the dobro
TTITLE14=Dolly Parton - Jalene
TTITLE15=Jerry Reed - Blue Moon of Kentucky
EXTD=
EXTT0=
EXTT1=
EXTT2=
EXTT3=
EXTT4=
EXTT5=
EXTT6=
EXTT7=
EXTT8=
EXTT9=
EXTT10=
EXTT11=
EXTT12=
EXTT13=
EXTT14=
EXTT15=
PLAYORDER=
